<svg xmlns="http://www.w3.org/2000/svg" xmlns:xlink="http://www.w3.org/1999/xlink" viewBox="0 0 276 217.06"><defs><style>.cls-1{fill:none;}.cls-2{fill:#e1f0ff;}.cls-3{clip-path:url(#clip-path);}.cls-4{fill:#db5223;}.cls-5{fill:#ffb899;}.cls-6{fill:#efa084;}.cls-7{fill:#86c1e2;}.cls-8{fill:#f77b59;}.cls-9{fill:#161114;}</style><clipPath id="clip-path"><path id="SVGID" class="cls-1" d="M136.42,202.08q-39-.87-65.84-27.7a84.53,84.53,0,0,1-23.24-42.9,98.26,98.26,0,0,1,2.09-49.75,100.13,100.13,0,0,1,25.32-42.6Q101,12.91,136.41,12t64.65,28.29q28.6,28.6,29.79,67.33t-26.8,66.73Q175.45,203,136.42,202.08Z"/></clipPath></defs><g id="OBJECTS"><path class="cls-2" d="M136.42,202.08q-39-.87-65.84-27.7a84.53,84.53,0,0,1-23.24-42.9,98.26,98.26,0,0,1,2.09-49.75,100.13,100.13,0,0,1,25.32-42.6Q101,12.91,136.41,12t64.65,28.29q28.6,28.6,29.79,67.33t-26.8,66.73Q175.45,203,136.42,202.08Z"/><g class="cls-3"><path class="cls-4" d="M121.32,45s-16.87-7.34-25.57,19.59-16,63.65,6.26,74.26l-1.64-6.53s1.91,6,13.06,8.16,26.93,3.81,26.93,3.81Z"/><path class="cls-4" d="M121.75,46.52a7.51,7.51,0,0,0-1.24-.42,14.56,14.56,0,0,0-3.64-.56,17.11,17.11,0,0,0-2.62.1,16.63,16.63,0,0,0-3,.73,17.48,17.48,0,0,0-3.17,1.46A20.39,20.39,0,0,0,105,50.18l-.76.69-.38.35-.34.4-1.38,1.65a15.87,15.87,0,0,0-1.28,1.81c-.41.64-.85,1.26-1.25,1.93-.68,1.4-1.49,2.78-2.13,4.28s-1.28,3.05-1.86,4.65a213.83,213.83,0,0,0-6.32,20.45,113.39,113.39,0,0,0-3.54,21,63.56,63.56,0,0,0,.11,9.79,37.69,37.69,0,0,0,1.76,8.56,28.05,28.05,0,0,0,3.25,6.63,23.08,23.08,0,0,0,3.81,4.25,21.77,21.77,0,0,0,3,2.19l1.11.69-1.14-.64a19.5,19.5,0,0,1-3.08-2.08,23.39,23.39,0,0,1-4-4.17,27,27,0,0,1-3.5-6.66c-1.9-5.21-2.62-11.75-2.24-18.62a115,115,0,0,1,3.44-21.25c1.82-7.1,4.12-14.06,6.48-20.5.6-1.61,1.3-3.17,1.94-4.7S98.23,58,99,56.61c.42-.67.89-1.31,1.32-2a15.43,15.43,0,0,1,1.35-1.83l1.45-1.66.35-.4.4-.36.79-.69a20.76,20.76,0,0,1,3.22-2.35A18.07,18.07,0,0,1,111.14,46a16.18,16.18,0,0,1,3.08-.65,18.21,18.21,0,0,1,2.66,0,14.15,14.15,0,0,1,3.65.71A7.48,7.48,0,0,1,121.75,46.52Z"/><path class="cls-4" d="M161.34,45s16.87-7.34,25.57,19.59,16.05,63.65-6.26,74.26l1.64-6.53s-1.91,6-13.06,8.16-26.93,3.81-26.93,3.81Z"/><path class="cls-4" d="M160.91,46.52a7.48,7.48,0,0,1,1.22-.48,14.15,14.15,0,0,1,3.65-.71,18.21,18.21,0,0,1,2.66,0,16.18,16.18,0,0,1,3.08.65,18.07,18.07,0,0,1,3.31,1.38,20.76,20.76,0,0,1,3.22,2.35l.79.69.4.36.35.4,1.46,1.66a16.55,16.55,0,0,1,1.34,1.83c.43.64.9,1.28,1.32,2,.73,1.4,1.58,2.8,2.26,4.31s1.34,3.09,1.94,4.7a213.09,213.09,0,0,1,6.48,20.5,115,115,0,0,1,3.44,21.25c.38,6.87-.34,13.41-2.24,18.62a27.38,27.38,0,0,1-3.49,6.66,24.11,24.11,0,0,1-4,4.17A19.49,19.49,0,0,1,185,138.9l-1.14.64,1.11-.69a21.77,21.77,0,0,0,3-2.19,23.46,23.46,0,0,0,3.82-4.25,28,28,0,0,0,3.24-6.63,37.69,37.69,0,0,0,1.76-8.56,64.81,64.81,0,0,0,.12-9.79,114.27,114.27,0,0,0-3.55-21A213.83,213.83,0,0,0,187,65.94c-.58-1.6-1.27-3.12-1.86-4.65S183.71,58.41,183,57c-.4-.67-.84-1.29-1.25-1.93a15.87,15.87,0,0,0-1.28-1.81l-1.38-1.65-.34-.4-.38-.35-.76-.69a20.39,20.39,0,0,0-3.07-2.35,17.48,17.48,0,0,0-3.17-1.46,16.43,16.43,0,0,0-3-.73,17.11,17.11,0,0,0-2.62-.1,14.56,14.56,0,0,0-3.64.56A7.51,7.51,0,0,0,160.91,46.52Z"/><path class="cls-5" d="M158.07,145.77c-6.32-5.17-.45-34.79-.45-34.79H121.85s5.86,29.62-.46,34.79-47.76,4.55-44,56.64H199.08C203.78,150.18,164.38,150.94,158.07,145.77Z"/><path class="cls-6" d="M156.24,142.81c-3.12-9.12,1.38-31.83,1.38-31.83H121.85a142,142,0,0,1,2.47,22.32C133.32,140.11,144.64,142.8,156.24,142.81Z"/><path class="cls-6" d="M149.35,175.57c-22.85,0-45.81-.56-68.71-.45a53.27,53.27,0,0,0-3.27,15.57c18.61,5.79,66.55,17,122.06,1.15a56.94,56.94,0,0,0-2.66-16.27Z"/><path class="cls-7" d="M182.47,154.49c-3.84-1.8-8.39-4.29-13.78-5.13,0,0-5.27,16.32-29.15,16.44-23.89-.12-29.16-16.44-29.16-16.44-5.95.82-10.91,3.38-15.06,5.3,2.05,6.89,5.79,23.69-.8,48l44.74.34h.56l43.4-.34C176.58,178.14,180.43,161.25,182.47,154.49Z"/><path class="cls-7" d="M107.45,174.21l2.93-24.85s-25-2.63-39.38,32.19c0,0,12.24,10.61,33.45,12.24Z"/><path class="cls-7" d="M171.85,174.21l-2.93-24.85s25-2.63,39.38,32.19c0,0-12.24,10.61-33.46,12.24Z"/><path class="cls-6" d="M100,99.28c1.75,6.42,6.69,12.11,10.57,11s5.24-8.48,3.48-14.89-6-9.42-9.83-8.36S98.25,92.86,100,99.28Z"/><path class="cls-6" d="M179.07,99.28c-1.76,6.42-6.7,12.11-10.58,11s-5.24-8.48-3.48-14.89,6-9.42,9.83-8.36S180.82,92.86,179.07,99.28Z"/><path class="cls-5" d="M107.34,87.77c0,23.5,14.53,47.48,32.44,47.48s32.44-24,32.44-47.48S157.7,50.16,139.78,50.16,107.34,64.28,107.34,87.77Z"/><path class="cls-4" d="M120.77,60.24s14.42,31.55,43,33.45c-16.05-12-17.41-21.49-17.41-21.49a51.68,51.68,0,0,0,22.58,21.49,25.55,25.55,0,0,0,1.63,10.88s3.81-8.43,3.27-17.4c0,0,5.44.81,6,7.34,0,0,15.5-21,1.09-44.07C167.92,29.65,111.25,21.07,120.77,60.24Z"/><path class="cls-4" d="M128.12,47.72s-12.74-9.52-23.94,2.18c-6,6.26-11.15,23.94.55,38.63,0,0-1.64,11.42,4.35,16,0,0-5.17-27.47,16-40.25S128.12,47.72,128.12,47.72Z"/><path class="cls-8" d="M141.67,97.23c.2.4.38.8.55,1.2s.37.77.52,1.15.39.75.55,1.13l.58,1.08.62,1c.24.33.45.67.67,1l.73.94.78.89.74.84-.87.58c-.52.34-1.06.64-1.6,1s-1.09.59-1.64.89a26.71,26.71,0,0,1-3.46,1.49,26.71,26.71,0,0,1,2.73-2.6c.48-.39,1-.8,1.46-1.16s1-.75,1.5-1.1l-.14,1.42-.94-1c-.28-.36-.54-.74-.81-1.11s-.47-.77-.68-1.18l-.54-1.23-.39-1.28c-.11-.44-.18-.88-.27-1.31s-.08-.89-.12-1.32S141.64,97.68,141.67,97.23Z"/><path class="cls-8" d="M130.43,116s.32.21.89.55c.27.18.63.37,1,.61s.86.45,1.33.72,1,.52,1.6.76l.88.37c.32.1.62.22.94.33.62.26,1.31.35,2,.56l1,.16.52.08h.52l1,.06,1-.09a11.43,11.43,0,0,0,2-.36l.48-.11a4.07,4.07,0,0,1,.44-.18l.88-.34a10.3,10.3,0,0,0,1.56-.77,10.73,10.73,0,0,0,1.29-.76l1-.67c.55-.37.88-.57.88-.57s-.21.31-.62.84c-.21.26-.45.59-.76.95a7.14,7.14,0,0,1-1.15,1.09,7.71,7.71,0,0,1-1.53,1.14l-.91.51c-.16.09-.32.18-.49.26l-.53.18a9.31,9.31,0,0,1-2.25.59l-1.2.14L141,122l-.6,0-.59-.11-1.17-.23c-.38-.1-.75-.24-1.11-.36a7,7,0,0,1-1.05-.42c-.33-.16-.67-.31-1-.47l-.88-.54a13.85,13.85,0,0,1-1.54-1.09A13.4,13.4,0,0,1,130.43,116Z"/><path class="cls-9" d="M142.89,89.16a5.68,5.68,0,0,1,.35-1.1,9.13,9.13,0,0,1,.58-1.2,10.2,10.2,0,0,1,1-1.44,10.37,10.37,0,0,1,1.47-1.51c.28-.25.62-.45,1-.69l.51-.34.56-.28a10.68,10.68,0,0,1,1.19-.52c.42-.13.85-.25,1.29-.35a6,6,0,0,1,1.34-.19,10.46,10.46,0,0,1,1.37-.05l1.34.15c.22,0,.45,0,.67.09l.63.19a10.91,10.91,0,0,1,2.36.91,16.43,16.43,0,0,1,2,1.16c.57.45,1.1.89,1.57,1.3a7.53,7.53,0,0,1,1.19,1.22c.34.38.61.73.83,1,.44.57.67.92.67.92s-.41-.13-1.07-.41c-.33-.15-.73-.31-1.17-.52a14.83,14.83,0,0,0-1.47-.66c-.54-.21-1.13-.44-1.72-.7s-1.26-.4-1.91-.65a15,15,0,0,0-2-.5l-.51-.12-.52,0-1-.1a6.81,6.81,0,0,0-1,0,4.72,4.72,0,0,0-1,.07l-1,.16c-.32.07-.62.19-.94.27l-.47.13-.44.19c-.3.12-.6.23-.88.36-.54.3-1.1.54-1.56.86s-.91.61-1.32.87-.73.53-1,.76l-.64.52Z"/><path class="cls-9" d="M113.75,89.16a4.9,4.9,0,0,1,.35-1.1,9.13,9.13,0,0,1,.58-1.2,9.32,9.32,0,0,1,1-1.44,10.37,10.37,0,0,1,1.47-1.51c.28-.25.62-.45,1-.69l.51-.34.56-.28a11.56,11.56,0,0,1,1.19-.52c.42-.13.85-.25,1.29-.35a6,6,0,0,1,1.34-.19,10.52,10.52,0,0,1,1.37-.05l1.34.15c.23,0,.45,0,.67.09l.63.19a10.71,10.71,0,0,1,2.36.91,16.43,16.43,0,0,1,2,1.16c.58.45,1.1.89,1.58,1.3a7.53,7.53,0,0,1,1.19,1.22c.33.38.6.73.82,1,.45.57.67.92.67.92s-.41-.13-1.07-.41c-.33-.15-.73-.31-1.16-.52a16,16,0,0,0-1.47-.66c-.55-.21-1.13-.44-1.73-.7s-1.26-.4-1.9-.65a15.14,15.14,0,0,0-2-.5l-.51-.12-.52,0-1-.1a7,7,0,0,0-1,0,4.76,4.76,0,0,0-1,.07l-1,.16c-.33.07-.63.19-1,.27l-.47.13-.44.19c-.29.12-.59.23-.87.36-.55.3-1.1.54-1.57.86s-.91.61-1.31.87-.73.53-1,.76-.5.39-.64.52Z"/><path class="cls-9" d="M127.25,96.9c0,2.56-.71,4.63-1.58,4.63s-1.58-2.07-1.58-4.63.71-4.62,1.58-4.62S127.25,94.35,127.25,96.9Z"/><path class="cls-9" d="M154.8,96.28c0,2.55-.7,4.62-1.58,4.62s-1.57-2.07-1.57-4.62.7-4.63,1.57-4.63S154.8,93.72,154.8,96.28Z"/></g></g></svg>